<svg width="33" height="33" viewBox="0 0 33 33" fill="none" xmlns="http://www.w3.org/2000/svg">
<path fill-rule="evenodd" clip-rule="evenodd" d="M19.9709 17.8496C21.3937 15.9813 22.2385 13.6489 22.2385 11.1192C22.2385 4.97825 17.2602 0 11.1192 0C4.97825 0 0 4.97825 0 11.1192C0 17.2602 4.97825 22.2385 11.1192 22.2385C13.6489 22.2385 15.9813 21.3937 17.8496 19.9709L29.8798 32.0011L32.0011 29.8798L19.9709 17.8496ZM11.1192 18.9027C6.82054 18.9027 3.33577 15.4179 3.33577 11.1192C3.33577 6.82054 6.82054 3.33577 11.1192 3.33577C15.4179 3.33577 18.9027 6.82054 18.9027 11.1192C18.9027 15.4179 15.4179 18.9027 11.1192 18.9027Z" fill="#2B2B2B"/>
</svg>
