<?xml version="1.0" encoding="UTF-8" standalone="no"?>
<svg width="82px" height="82px" viewBox="0 0 82 82" version="1.1" xmlns="http://www.w3.org/2000/svg" xmlns:xlink="http://www.w3.org/1999/xlink">
    <!-- Generator: Sketch 42 (36781) - http://www.bohemiancoding.com/sketch -->
    <title>Group 3</title>
    <desc>Created with Sketch.</desc>
    <defs></defs>
    <g id="Layout" stroke="none" stroke-width="1" fill="none" fill-rule="evenodd">
        <g id="Sawtooth-Lake-In-Action" transform="translate(-1400.000000, 3.000000)">
            <g id="Group-3" transform="translate(1403.000000, 0.000000)">
                <circle id="Oval-3" stroke="#B1B1B1" stroke-width="6" cx="38" cy="38" r="38"></circle>
                <path d="M32.8557775,53.119759 C31.900955,53.119759 30.9454562,52.7674484 30.1989093,52.0587699 C28.6557754,50.5913726 28.5942394,48.1502185 30.0609605,46.6064084 L38.6881746,37.5328891 L30.0697513,28.5222582 C28.5976205,26.9838578 28.6517181,24.5427038 30.1907947,23.0698967 C31.7305475,21.5970897 34.1710253,21.6518635 35.6431562,23.1909401 L46.8041665,34.8577629 C48.2269333,36.3454468 48.2296381,38.688549 46.8129573,40.1809664 L35.6526233,51.920821 C34.8932283,52.7167319 33.8768697,53.119759 32.8557775,53.119759 Z" id="Shape-Copy-3" fill="#B1B1B1" fill-rule="nonzero" transform="translate(38.436680, 37.559879) rotate(-90.000000) translate(-38.436680, -37.559879) "></path>
            </g>
        </g>
    </g>
</svg>